<svg xmlns="http://www.w3.org/2000/svg" width="1200" height="675" viewBox="0 0 1200 675" role="img" aria-labelledby="title desc">
  <title id="title">Surreal Overlay Preview</title>
  <desc id="desc">Generated conceptual preview of orbit rings and tracking brackets.</desc>
  <defs>
    <linearGradient id="bg" x1="0" y1="0" x2="1" y2="1">
      <stop offset="0%" stop-color="#0a111f"/>
      <stop offset="45%" stop-color="#181028"/>
      <stop offset="100%" stop-color="#10252b"/>
    </linearGradient>
    <linearGradient id="hud" x1="0" y1="0" x2="0" y2="1">
      <stop offset="0%" stop-color="#13263a"/>
      <stop offset="100%" stop-color="#0a1421"/>
    </linearGradient>
    <filter id="soft" x="-20%" y="-20%" width="140%" height="140%">
      <feGaussianBlur stdDeviation="6"/>
    </filter>
  </defs>

  <rect width="1200" height="675" fill="url(#bg)"/>

  <g opacity="0.23">
    <path d="M-20 100 H1220" stroke="#d8d0bf" stroke-width="1"/>
    <path d="M-20 135 H1220" stroke="#d8d0bf" stroke-width="1"/>
    <path d="M-20 170 H1220" stroke="#d8d0bf" stroke-width="1"/>
    <path d="M-20 205 H1220" stroke="#d8d0bf" stroke-width="1"/>
    <path d="M-20 240 H1220" stroke="#d8d0bf" stroke-width="1"/>
    <path d="M-20 275 H1220" stroke="#d8d0bf" stroke-width="1"/>
    <path d="M-20 310 H1220" stroke="#d8d0bf" stroke-width="1"/>
    <path d="M-20 345 H1220" stroke="#d8d0bf" stroke-width="1"/>
    <path d="M-20 380 H1220" stroke="#d8d0bf" stroke-width="1"/>
    <path d="M-20 415 H1220" stroke="#d8d0bf" stroke-width="1"/>
    <path d="M-20 450 H1220" stroke="#d8d0bf" stroke-width="1"/>
    <path d="M-20 485 H1220" stroke="#d8d0bf" stroke-width="1"/>
    <path d="M-20 520 H1220" stroke="#d8d0bf" stroke-width="1"/>
    <path d="M-20 555 H1220" stroke="#d8d0bf" stroke-width="1"/>
  </g>

  <g stroke="#6df0c5" stroke-width="3" fill="none">
    <path d="M180 190 h60 M180 190 v60"/>
    <path d="M560 190 h-60 M560 190 v60"/>
    <path d="M180 470 h60 M180 470 v-60"/>
    <path d="M560 470 h-60 M560 470 v-60"/>
  </g>
  <rect x="180" y="190" width="380" height="280" fill="none" stroke="#6df0c5" stroke-opacity="0.25" stroke-width="2"/>

  <g transform="translate(370 330)">
    <circle cx="0" cy="0" r="12" fill="#aef5df"/>
    <circle cx="0" cy="0" r="78" stroke="#6df0c5" stroke-width="2" fill="none"/>
    <circle cx="0" cy="0" r="116" stroke="#6df0c5" stroke-opacity="0.7" stroke-width="2" fill="none"/>
    <path d="M-12 0 H12 M0 -12 V12" stroke="#6df0c5" stroke-width="2"/>
  </g>

  <polyline points="350,330 430,290 520,260 610,236 710,220" fill="none" stroke="#84a5ff" stroke-width="4"/>
  <g fill="#dbe7ff" filter="url(#soft)">
    <circle cx="430" cy="290" r="5"/>
    <circle cx="520" cy="260" r="6"/>
    <circle cx="610" cy="236" r="7"/>
    <circle cx="710" cy="220" r="8"/>
  </g>

  <rect x="36" y="474" width="290" height="165" rx="8" fill="url(#hud)" stroke="#96b2db" stroke-width="1.5"/>
  <text x="52" y="506" fill="#b8d2ff" font-family="Consolas, monospace" font-size="20">mode: surreal</text>
  <text x="52" y="536" fill="#dbe7f8" font-family="Consolas, monospace" font-size="18">tracks: 4</text>
  <text x="52" y="564" fill="#dbe7f8" font-family="Consolas, monospace" font-size="18">selected: 17</text>
  <rect x="52" y="580" width="20" height="44" fill="#f9ca60"/>
  <rect x="84" y="594" width="20" height="30" fill="#7ce3ff"/>
  <text x="114" y="608" fill="#dbe7f8" font-family="Consolas, monospace" font-size="15">keys: q n c v</text>

  <text x="792" y="98" fill="#f2f7ff" font-family="Consolas, monospace" font-size="30">Trajectory Tracker</text>
  <text x="792" y="132" fill="#99b8d8" font-family="Consolas, monospace" font-size="20">Generated Surreal Overlay Preview</text>
</svg>
